<?xml version="1.0" encoding="UTF-8" standalone="no"?>
<svg
   width="16"
   height="16"
   viewBox="0 0 16 16"
   version="1.1"
   inkscape:version="1.3.2 (091e20ef0f, 2023-11-25, custom)"
   sodipodi:docname="close-symbolic.svg"
   id="svg824"
   xmlns:inkscape="http://www.inkscape.org/namespaces/inkscape"
   xmlns:sodipodi="http://sodipodi.sourceforge.net/DTD/sodipodi-0.dtd"
   xmlns:xlink="http://www.w3.org/1999/xlink"
   xmlns="http://www.w3.org/2000/svg"
   xmlns:svg="http://www.w3.org/2000/svg">
  <defs
     id="defs5">
    <linearGradient
       inkscape:collect="always"
       xlink:href="#linearGradient15401"
       id="linearGradient15365"
       gradientUnits="userSpaceOnUse"
       gradientTransform="matrix(0,1.000005,-0.99999503,0,943.23402,-30.359755)"
       x1="131.26018"
       y1="456.43948"
       x2="842.33344"
       y2="456.43948" />
    <linearGradient
       inkscape:collect="always"
       id="linearGradient15401">
      <stop
         style="stop-color:#e5f230;stop-opacity:1"
         offset="0"
         id="stop15397" />
      <stop
         style="stop-color:#54ff64;stop-opacity:1;"
         offset="1"
         id="stop15399" />
    </linearGradient>
  </defs>
  <sodipodi:namedview
     id="namedview6"
     pagecolor="#424242"
     bordercolor="#666666"
     borderopacity="1.0"
     inkscape:pageshadow="2"
     inkscape:pageopacity="0"
     inkscape:pagecheckerboard="0"
     showgrid="false"
     inkscape:zoom="46.25"
     inkscape:cx="5.6972973"
     inkscape:cy="7.4486487"
     inkscape:window-width="1440"
     inkscape:window-height="742"
     inkscape:window-x="0"
     inkscape:window-y="32"
     inkscape:window-maximized="1"
     inkscape:current-layer="svg824"
     inkscape:showpageshadow="2"
     inkscape:deskcolor="#d1d1d1" />
  <path
     d="m 4.464745,3.96488 c -0.12775,0 -0.2555,0.0486 -0.35339,0.14649 -0.19578,0.19586 -0.19578,0.51116 0,0.70703 L 7.292955,8 l -3.1816,3.1816 c -0.19578,0.19586 -0.19578,0.51116 0,0.70703 0.19578,0.19586 0.51118,0.19586 0.70704,0 l 3.18161,-3.1816 3.1816,3.1816 c 0.19578,0.19586 0.51114,0.19586 0.70704,0 0.19578,-0.19586 0.19578,-0.51116 0,-0.70703 L 8.707045,8 l 3.1816,-3.1816 c 0.19578,-0.19586 0.19578,-0.51116 0,-0.70703 -0.19578,-0.19586 -0.51117,-0.19586 -0.70704,0 l -3.1816,3.1816 -3.18161,-3.1816 C 4.720495,4.01347 4.592755,3.96488 4.465005,3.96488 Z"
     id="path2928"
     style="display:none;fill:#ffffff" />
  <g
     id="active-center"
     transform="matrix(0.01754642,0,0,-0.01754633,-0.54163115,16.008817)">
    <path
       id="path4094"
       style="fill:#f5f5ef;fill-opacity:0;fill-rule:evenodd;stroke:none;stroke-width:0.824346"
       d="m 486.80602,0.50289721 c 251.8009,0 455.9293,204.12991279 455.9293,455.93532279 0,251.80647 -204.1284,455.93604 -455.9293,455.93604 -251.80831,0 -455.937552,-204.12957 -455.937552,-455.93604 0,-251.80541 204.129242,-455.93532279 455.937552,-455.93532279"
       inkscape:connector-curvature="0" />
    <path
       id="path18-6-3"
       style="fill:url(#linearGradient15365);fill-opacity:1;fill-rule:evenodd;stroke:none;stroke-width:1.67833"
       d="M 191.26889 811.97027 C 176.16162 811.97027 160.98974 806.28717 149.52693 794.82815 L 148.41382 793.71502 C 125.48821 770.78785 125.48821 733.26015 148.41382 710.342 L 402.31621 456.4383 L 148.41382 202.5346 C 125.4882 179.60742 125.4882 142.08423 148.41382 119.16157 L 149.52693 118.04845 C 172.45255 95.13029 209.97348 95.13029 232.89953 118.04845 L 486.80193 371.95215 L 740.70433 118.04845 C 763.62497 95.116857 801.1563 95.116857 824.07693 118.04845 L 825.19005 119.16157 C 848.11565 142.08865 848.11565 179.60752 825.19005 202.5346 L 571.28765 456.4383 L 825.19005 710.342 C 848.11566 733.26457 848.11566 770.78344 825.19005 793.71502 L 824.07693 794.82815 C 801.15629 817.75533 763.62498 817.74633 740.70433 794.82815 L 486.80193 540.92445 L 232.89953 794.82815 C 221.43989 806.28717 206.37616 811.97027 191.26889 811.97027 z " />
  </g>
</svg>
