<?xml version="1.0" encoding="UTF-8" standalone="no"?>
<svg
   width="24"
   height="24"
   viewBox="0 0 24 24"
   version="1.1"
   id="svg1"
   sodipodi:docname="radio-mixed-symbolic.svg"
   inkscape:version="1.3.2 (091e20ef0f, 2023-11-25, custom)"
   xmlns:inkscape="http://www.inkscape.org/namespaces/inkscape"
   xmlns:sodipodi="http://sodipodi.sourceforge.net/DTD/sodipodi-0.dtd"
   xmlns="http://www.w3.org/2000/svg"
   xmlns:svg="http://www.w3.org/2000/svg">
  <defs
     id="defs1" />
  <sodipodi:namedview
     id="namedview1"
     pagecolor="#ffffff"
     bordercolor="#666666"
     borderopacity="1.0"
     inkscape:showpageshadow="2"
     inkscape:pageopacity="0.0"
     inkscape:pagecheckerboard="0"
     inkscape:deskcolor="#d1d1d1"
     showgrid="true"
     inkscape:zoom="32"
     inkscape:cx="10.84375"
     inkscape:cy="12.046875"
     inkscape:current-layer="svg1">
    <inkscape:grid
       id="grid1"
       units="px"
       originx="0"
       originy="0"
       spacingx="0.5"
       spacingy="0.5"
       empcolor="#0099e5"
       empopacity="0.30196078"
       color="#0099e5"
       opacity="0.14901961"
       empspacing="5"
       dotted="false"
       gridanglex="30"
       gridanglez="30"
       visible="true" />
  </sodipodi:namedview>
  <path
     d="m 12,3 c -4.968,0 -9,4.032 -9,9 0,4.968 4.032,9 9,9 4.968,0 9,-4.032 9,-9 0,-4.968 -4.032,-9 -9,-9 z m 0,1.8 c 3.978,0 7.2,3.222 7.2,7.2 0,3.9555 -3.43575,7.2 -7.2,7.2 C 8.3879277,19.2 4.8,15.906406 4.8,12 4.8,8.3218898 8.022,4.8 12,4.8 Z"
     id="path1"
     sodipodi:nodetypes="ssssssssss"
     style="stroke-width:0.9" />
  <path
     id="path1-2"
     style="display:inline;stroke-width:0.9"
     d="m 12,4.8 c -4.5,0 -7.2,3.0712499 -7.2,7.2 0,4.15125 3.15,7.2 7.2,7.2 4.05,0 7.2,-3.15 7.2,-7.2 0,-4.1287501 -2.7,-7.2 -7.2,-7.2 z m 0,1.8 c 3.052653,0 5.4,2.4095751 5.4,5.4 0,3.060057 -2.339942,5.4 -5.4,5.4 C 8.9399433,17.4 6.6,15.060057 6.6,12 6.6,8.9399431 8.9399433,6.6 12,6.6 Z m 0,0 c -3.15,0 -5.4,2.25 -5.4,5.4 0,3.15 2.25,5.4 5.4,5.4 3.15,0 5.4,-2.25 5.4,-5.4 C 17.39694,9.0629682 15.15,6.6 12,6.6 Z m -4.5,4.5 h 9 v 1.8 h -9 z"
     sodipodi:nodetypes="sssssssssscssccccccc" />
  <path
     id="path1-6"
     style="display:none"
     d="m 12,4 c -4.418278,0 -8,3.581722 -8,8 0,4.418278 3.581722,8 8,8 4.418278,0 8,-3.581722 8,-8 0,-4.418278 -3.581722,-8 -8,-8 z m 0,2 c 3.391837,0 6,2.6773057 6,6 0,3.400063 -2.599936,6 -6,6 C 8.5999372,18 6,15.400063 6,12 6,8.5999368 8.5999371,6 12,6 Z m 0,0 c -3.3137085,0 -6,2.6862915 -6,6 0,3.313708 2.6862915,6 6,6 3.313708,0 6,-2.686292 6,-6 C 17.9966,8.7366313 15.296688,6.0034656 12,6 Z m -4,5 h 8 v 2 H 8 Z"
     sodipodi:nodetypes="sssssssssscssccccccc" />
</svg>
