<?xml version="1.0" encoding="UTF-8" standalone="no"?>
<svg
   width="24"
   height="24"
   viewBox="0 0 24 24"
   version="1.1"
   id="svg1"
   sodipodi:docname="radio-mixed-symbolic copy.svg"
   inkscape:version="1.3.2 (091e20ef0f, 2023-11-25, custom)"
   xmlns:inkscape="http://www.inkscape.org/namespaces/inkscape"
   xmlns:sodipodi="http://sodipodi.sourceforge.net/DTD/sodipodi-0.dtd"
   xmlns="http://www.w3.org/2000/svg"
   xmlns:svg="http://www.w3.org/2000/svg">
  <defs
     id="defs1" />
  <sodipodi:namedview
     id="namedview1"
     pagecolor="#ffffff"
     bordercolor="#666666"
     borderopacity="1.0"
     inkscape:showpageshadow="2"
     inkscape:pageopacity="0.0"
     inkscape:pagecheckerboard="0"
     inkscape:deskcolor="#d1d1d1"
     showgrid="true"
     inkscape:zoom="32"
     inkscape:cx="10.84375"
     inkscape:cy="12.078125"
     inkscape:current-layer="svg1">
    <inkscape:grid
       id="grid1"
       units="px"
       originx="0"
       originy="0"
       spacingx="0.5"
       spacingy="0.5"
       empcolor="#0099e5"
       empopacity="0.30196078"
       color="#0099e5"
       opacity="0.14901961"
       empspacing="5"
       dotted="false"
       gridanglex="30"
       gridanglez="30"
       visible="true" />
  </sodipodi:namedview>
  <path
     d="M 12,2 C 6.48,2 2,6.48 2,12 2,17.52 6.48,22 12,22 17.52,22 22,17.52 22,12 22,6.48 17.52,2 12,2 Z m 0,2 c 4.42,0 8,3.58 8,8 0,4.395 -3.8175,8 -8,8 C 7.9865863,20 4,16.340451 4,12 4,7.9132109 7.58,4 12,4 Z"
     id="path1"
     sodipodi:nodetypes="ssssssssss" />
  <path
     id="path1-2"
     style="display:inline"
     d="m 12,4 c -5,0 -8,3.4124999 -8,8 0,4.6125 3.5,8 8,8 4.5,0 8,-3.5 8,-8 0,-4.5875001 -3,-8 -8,-8 z m 0,2 c 3.391837,0 6,2.6773057 6,6 0,3.400063 -2.599936,6 -6,6 C 8.599937,18 6,15.400063 6,12 6,8.5999368 8.599937,6 12,6 Z m 0,0 c -3.5,0 -6,2.5 -6,6 0,3.5 2.5,6 6,6 3.5,0 6,-2.5 6,-6 C 17.9966,8.7366313 15.5,6 12,6 Z"
     sodipodi:nodetypes="sssssssssscsscc" />
  <path
     id="path1-6"
     style="display:none"
     d="m 12,4 c -4.418278,0 -8,3.581722 -8,8 0,4.418278 3.581722,8 8,8 4.418278,0 8,-3.581722 8,-8 0,-4.418278 -3.581722,-8 -8,-8 z m 0,2 c 3.391837,0 6,2.6773057 6,6 0,3.400063 -2.599936,6 -6,6 C 8.5999372,18 6,15.400063 6,12 6,8.5999368 8.5999371,6 12,6 Z m 0,0 c -3.3137085,0 -6,2.6862915 -6,6 0,3.313708 2.6862915,6 6,6 3.313708,0 6,-2.686292 6,-6 C 17.9966,8.7366313 15.296688,6.0034656 12,6 Z m -4,5 h 8 v 2 H 8 Z"
     sodipodi:nodetypes="sssssssssscssccccccc" />
</svg>
