<?xml version="1.0" encoding="UTF-8" standalone="no"?>
<svg
   width="24"
   height="24"
   viewBox="0 0 24 24"
   version="1.1"
   id="svg1"
   sodipodi:docname="radio-checked-symbolic-fat-2.svg"
   inkscape:version="1.3.2 (091e20ef0f, 2023-11-25, custom)"
   xmlns:inkscape="http://www.inkscape.org/namespaces/inkscape"
   xmlns:sodipodi="http://sodipodi.sourceforge.net/DTD/sodipodi-0.dtd"
   xmlns="http://www.w3.org/2000/svg"
   xmlns:svg="http://www.w3.org/2000/svg">
  <defs
     id="defs1" />
  <sodipodi:namedview
     id="namedview1"
     pagecolor="#ffffff"
     bordercolor="#666666"
     borderopacity="1.0"
     inkscape:showpageshadow="2"
     inkscape:pageopacity="0.0"
     inkscape:pagecheckerboard="0"
     inkscape:deskcolor="#d1d1d1"
     inkscape:zoom="30.625"
     inkscape:cx="11.983673"
     inkscape:cy="12"
     inkscape:current-layer="svg1" />
  <path
     d="m 12,4 c -2.76,0 -8,5.24 -8,8 0,2.76 5.24,8 8,8 2.76,0 8,-5.24 8,-8 C 20,9.24 14.76,4 12,4 Z M 12,2 C 6.48,2 2,6.48 2,12 2,17.52 6.48,22 12,22 17.52,22 22,17.52 22,12 22,6.48 17.52,2 12,2 Z m 0,18 C 7.58,20 4,16.42 4,12 4,7.58 7.58,4 12,4 c 4.42,0 8,3.58 8,8 0,4.42 -3.58,8 -8,8 z"
     id="path1"
     style="stroke:#000000;stroke-width:2;stroke-linejoin:round;stroke-dasharray:none;stroke-opacity:1"
     sodipodi:nodetypes="sssssssssssssss" />
</svg>
